<?xml version="1.0" standalone="no"?>
<!DOCTYPE svg PUBLIC "-//W3C//DTD SVG 20010904//EN"
 "http://www.w3.org/TR/2001/REC-SVG-20010904/DTD/svg10.dtd">
<svg version="1.0" xmlns="http://www.w3.org/2000/svg"
 width="310.000000pt" height="310.000000pt" viewBox="0 0 310.000000 310.000000"
 preserveAspectRatio="xMidYMid meet">
<metadata>
Created by potrace 1.11, written by Peter Selinger 2001-2013
</metadata>
<g transform="translate(0.000000,310.000000) scale(0.100000,-0.100000)"
fill="#000000" stroke="none">
<path d="M213 3070 c-80 -37 -147 -104 -184 -185 l-29 -65 0 -1270 0 -1270 29
-65 c37 -82 104 -149 186 -186 l65 -29 1265 0 1266 0 72 34 c89 42 146 99 187
188 l30 68 0 1260 0 1260 -30 68 c-47 102 -110 161 -220 204 -42 17 -122 18
-1310 18 l-1265 -1 -62 -29z m1558 -855 c38 -20 69 -70 69 -112 0 -18 -37
-155 -81 -305 -45 -150 -101 -338 -125 -418 -116 -393 -132 -442 -154 -465
-53 -56 -135 -53 -185 6 -46 55 -46 54 28 309 14 47 41 141 61 210 20 69 43
148 51 175 8 28 46 160 86 295 39 134 78 254 86 266 31 48 109 67 164 39z
m-794 -156 c67 -25 100 -89 81 -156 -8 -29 -47 -75 -164 -194 -85 -85 -154
-159 -154 -164 0 -5 72 -82 160 -170 156 -157 160 -162 160 -204 0 -81 -48
-131 -127 -131 -21 0 -50 7 -63 16 -49 33 -412 400 -431 436 -23 44 -24 79 -5
116 21 39 419 433 453 448 36 16 55 17 90 3z m1230 1 c32 -12 437 -411 459
-452 18 -34 18 -82 0 -116 -26 -48 -418 -430 -459 -447 -79 -33 -156 16 -165
104 -6 67 7 87 177 255 78 77 141 142 141 145 0 4 -68 74 -151 156 -84 84
-157 165 -165 185 -26 59 -2 123 59 160 36 22 63 25 104 10z"/>
</g>
</svg>
